<svg width="20" height="20" viewBox="0 0 20 20" fill="none" xmlns="http://www.w3.org/2000/svg">
<path fill-rule="evenodd" clip-rule="evenodd" d="M10 2C8.284 2 6.592 2.106 4.93 2.31C3.806 2.45 3 3.414 3 4.517V17.25C2.99999 17.3769 3.03216 17.5017 3.0935 17.6127C3.15484 17.7238 3.24335 17.8174 3.35075 17.885C3.45815 17.9525 3.58092 17.9917 3.70759 17.9989C3.83425 18.0061 3.96066 17.981 4.075 17.926L10 15.082L15.925 17.926C16.0393 17.981 16.1657 18.0061 16.2924 17.9989C16.4191 17.9917 16.5419 17.9525 16.6493 17.885C16.7566 17.8174 16.8452 17.7238 16.9065 17.6127C16.9678 17.5017 17 17.3769 17 17.25V4.517C17 3.414 16.194 2.449 15.07 2.31C13.3879 2.103 11.6948 1.99947 10 2Z" fill="white"/>
</svg>
