<svg width="20" height="20" viewBox="0 0 20 20" fill="none" xmlns="http://www.w3.org/2000/svg">
<path d="M10.0001 2C10.199 2 10.3897 2.07902 10.5304 2.21967C10.671 2.36032 10.7501 2.55109 10.7501 2.75V8.34L12.7001 6.24C12.8353 6.09413 13.023 6.00797 13.2218 6.00047C13.4206 5.99297 13.6142 6.06474 13.7601 6.2C13.9059 6.33526 13.9921 6.52293 13.9996 6.72172C14.0071 6.9205 13.9353 7.11413 13.8001 7.26L10.5501 10.76C10.4799 10.8357 10.3948 10.8961 10.3001 10.9375C10.2055 10.9788 10.1033 11.0001 10.0001 11.0001C9.8968 11.0001 9.79465 10.9788 9.70001 10.9375C9.60536 10.8961 9.52027 10.8357 9.45007 10.76L6.20007 7.26C6.13309 7.18777 6.081 7.10306 6.04676 7.0107C6.01253 6.91834 5.99682 6.82015 6.00053 6.72172C6.00425 6.62329 6.02731 6.52655 6.06841 6.43703C6.10951 6.34752 6.16784 6.26697 6.24007 6.2C6.31229 6.13303 6.39701 6.08093 6.48936 6.0467C6.58172 6.01246 6.67992 5.99675 6.77835 6.00047C6.87678 6.00418 6.97352 6.02725 7.06303 6.06835C7.15255 6.10944 7.23309 6.16777 7.30007 6.24L9.25007 8.34V2.75C9.25007 2.55109 9.32908 2.36032 9.46974 2.21967C9.61039 2.07902 9.80115 2 10.0001 2Z" fill="#767676"/>
<path d="M5.273 4.5C4.99935 4.50002 4.73328 4.58984 4.5156 4.75567C4.29792 4.9215 4.14068 5.15418 4.068 5.418L2.545 10.938C2.539 10.958 2.535 10.979 2.53 11H6C6.18566 11.0001 6.36763 11.0519 6.52553 11.1496C6.68342 11.2472 6.81101 11.3869 6.894 11.553L7.342 12.447C7.42499 12.6131 7.55258 12.7528 7.71047 12.8504C7.86837 12.9481 8.05034 12.9999 8.236 13H11.674C11.8475 13 12.0181 12.9548 12.1689 12.8689C12.3197 12.783 12.4455 12.6593 12.534 12.51L13.14 11.49C13.2285 11.3407 13.3543 11.217 13.5051 11.1311C13.6559 11.0452 13.8265 11 14 11H17.47C17.4655 10.9792 17.4605 10.9585 17.455 10.938L15.932 5.418C15.8593 5.15418 15.7021 4.9215 15.4844 4.75567C15.2667 4.58984 15.0006 4.50002 14.727 4.5H13.75C13.5511 4.5 13.3603 4.42098 13.2197 4.28033C13.079 4.13968 13 3.94891 13 3.75C13 3.55109 13.079 3.36032 13.2197 3.21967C13.3603 3.07902 13.5511 3 13.75 3H14.727C15.3289 3.00001 15.9143 3.19753 16.3931 3.56224C16.872 3.92695 17.218 4.43871 17.378 5.019L18.901 10.539C18.967 10.778 19 11.024 19 11.271V15C19 15.5304 18.7893 16.0391 18.4142 16.4142C18.0391 16.7893 17.5304 17 17 17H3C2.46957 17 1.96086 16.7893 1.58579 16.4142C1.21071 16.0391 1 15.5304 1 15V11.27C1 11.024 1.033 10.778 1.099 10.54L2.622 5.019C2.78201 4.43871 3.12799 3.92695 3.60687 3.56224C4.08574 3.19753 4.67106 3.00001 5.273 3H6.25C6.44891 3 6.63968 3.07902 6.78033 3.21967C6.92098 3.36032 7 3.55109 7 3.75C7 3.94891 6.92098 4.13968 6.78033 4.28033C6.63968 4.42098 6.44891 4.5 6.25 4.5H5.273Z" fill="#767676"/>
</svg>
