<svg width="80" height="40" viewBox="0 0 80 40" fill="none" xmlns="http://www.w3.org/2000/svg">
<path fill-rule="evenodd" clip-rule="evenodd" d="M53.2801 12.2198C53.1379 12.0874 52.9499 12.0152 52.7556 12.0187C52.5613 12.0221 52.3759 12.1008 52.2385 12.2382C52.1011 12.3756 52.0223 12.561 52.0189 12.7553C52.0155 12.9496 52.0876 13.1377 52.2201 13.2798L66.7201 27.7798C66.7888 27.8535 66.8716 27.9126 66.9636 27.9536C67.0556 27.9946 67.1549 28.0167 67.2556 28.0184C67.3563 28.0202 67.4563 28.0017 67.5497 27.964C67.6431 27.9262 67.7279 27.8701 67.7991 27.7989C67.8703 27.7277 67.9265 27.6428 67.9642 27.5494C68.0019 27.4561 68.0205 27.356 68.0187 27.2553C68.0169 27.1546 67.9949 27.0553 67.9539 26.9633C67.9129 26.8713 67.8538 26.7885 67.7801 26.7198L66.0351 24.9748C67.5207 23.8498 68.6634 22.3331 69.3351 20.5948C69.4817 20.2135 69.4817 19.7912 69.3351 19.4098C68.6088 17.5232 67.328 15.9009 65.6614 14.7566C63.9948 13.6124 62.0207 12.9999 59.9991 12.9998C58.3431 12.9971 56.7125 13.4075 55.2551 14.1938L53.2801 12.2198ZM57.7521 16.6898L58.8441 17.7818C59.3159 17.5353 59.854 17.4457 60.3802 17.5262C60.9064 17.6067 61.3932 17.8531 61.7696 18.2294C62.1461 18.6058 62.3926 19.0925 62.4733 19.6186C62.5539 20.1448 62.4645 20.683 62.2181 21.1548L63.3091 22.2468C63.8327 21.477 64.0713 20.5486 63.9838 19.6217C63.8963 18.6947 63.4883 17.8274 62.8299 17.169C62.1716 16.5107 61.3042 16.1026 60.3773 16.0151C59.4504 15.9277 58.522 16.1663 57.7521 16.6898Z" fill="#767676"/>
<path d="M60.7479 23.93L63.2709 26.453C62.219 26.8163 61.1137 27.0011 60.0009 27C55.7429 27 52.1069 24.34 50.6639 20.59C50.517 20.2083 50.517 19.7857 50.6639 19.404C51.1523 18.1404 51.8923 16.9892 52.8389 16.02L56.0699 19.252C55.9478 19.8928 55.9843 20.5538 56.1761 21.1773C56.368 21.8008 56.7095 22.3679 57.1708 22.8291C57.632 23.2904 58.1991 23.6319 58.8226 23.8238C59.4461 24.0156 60.1071 24.0521 60.7479 23.93Z" fill="#767676"/>
<path d="M20 22.5C20.663 22.5 21.2989 22.2366 21.7678 21.7678C22.2366 21.2989 22.5 20.663 22.5 20C22.5 19.337 22.2366 18.7011 21.7678 18.2322C21.2989 17.7634 20.663 17.5 20 17.5C19.337 17.5 18.7011 17.7634 18.2322 18.2322C17.7634 18.7011 17.5 19.337 17.5 20C17.5 20.663 17.7634 21.2989 18.2322 21.7678C18.7011 22.2366 19.337 22.5 20 22.5Z" fill="#767676"/>
<path fill-rule="evenodd" clip-rule="evenodd" d="M10.6639 20.59C10.517 20.2083 10.517 19.7857 10.6639 19.404C11.3911 17.5185 12.6723 15.8974 14.3388 14.7543C16.0053 13.6112 17.979 12.9996 19.9999 13C24.2569 13 27.8929 15.66 29.3359 19.41C29.4829 19.791 29.4819 20.214 29.3359 20.596C28.6087 22.4815 27.3274 24.1026 25.6609 25.2457C23.9944 26.3888 22.0208 27.0004 19.9999 27C15.7429 27 12.1069 24.34 10.6639 20.59ZM23.9999 20C23.9999 21.0609 23.5785 22.0783 22.8283 22.8284C22.0782 23.5786 21.0607 24 19.9999 24C18.939 24 17.9216 23.5786 17.1715 22.8284C16.4213 22.0783 15.9999 21.0609 15.9999 20C15.9999 18.9391 16.4213 17.9217 17.1715 17.1716C17.9216 16.4214 18.939 16 19.9999 16C21.0607 16 22.0782 16.4214 22.8283 17.1716C23.5785 17.9217 23.9999 18.9391 23.9999 20Z" fill="#767676"/>
</svg>
