<svg width="20" height="20" viewBox="0 0 20 20" fill="none" xmlns="http://www.w3.org/2000/svg">
<path d="M17.0001 4.51687V13.8179L5.43309 2.25187C8.63675 1.89634 11.8709 1.91581 15.0701 2.30987C16.1941 2.44987 17.0001 3.41387 17.0001 4.51687ZM3.00009 17.2499V6.18187L13.6541 16.8359L10.0001 15.0819L4.07509 17.9259C3.96075 17.9808 3.83434 18.0059 3.70768 17.9987C3.58101 17.9916 3.45824 17.9524 3.35084 17.8848C3.24344 17.8173 3.15493 17.7236 3.09359 17.6126C3.03225 17.5015 3.00008 17.3767 3.00009 17.2499ZM3.28009 2.21987C3.13792 2.08739 2.94987 2.01527 2.75557 2.0187C2.56127 2.02212 2.37588 2.10084 2.23847 2.23825C2.10106 2.37566 2.02234 2.56105 2.01892 2.75535C2.01549 2.94965 2.08761 3.1377 2.22009 3.27987L16.7201 17.7799C16.7888 17.8536 16.8716 17.9127 16.9636 17.9537C17.0556 17.9946 17.1549 18.0167 17.2556 18.0185C17.3563 18.0202 17.4563 18.0017 17.5497 17.964C17.6431 17.9263 17.7279 17.8701 17.7991 17.7989C17.8703 17.7277 17.9265 17.6429 17.9642 17.5495C18.0019 17.4561 18.0205 17.3561 18.0187 17.2553C18.0169 17.1546 17.9949 17.0553 17.9539 16.9633C17.9129 16.8713 17.8538 16.7885 17.7801 16.7199L3.28009 2.21987Z" fill="white"/>
</svg>
